<?xml version="1.0" encoding="UTF-8"?>
<svg id="Layer_2" data-name="Layer 2" xmlns="http://www.w3.org/2000/svg" viewBox="0 0 1592.99 337.4">
  <defs>
    <style>
      .cls-1 {
        fill: #6f97c1;
      }

      .cls-1, .cls-2, .cls-3, .cls-4 {
        stroke-width: 0px;
      }

      .cls-2 {
        fill: #0c4d8f;
      }

      .cls-3 {
        fill: #3a73aa;
      }

      .cls-4 {
        fill: #dbe5ef;
      }
    </style>
  </defs>
  <g id="LETTERMARK">
    <g>
      <g>
        <g>
          <path class="cls-2" d="m479.68,264.18c-15.13-8.44-27.1-20.23-35.91-35.35-8.82-15.12-13.22-32.15-13.22-51.08s4.41-35.91,13.22-50.94c8.81-15.03,20.78-26.77,35.91-35.21,15.12-8.44,31.69-12.67,49.69-12.67s34.84,4.22,49.97,12.67c15.12,8.45,27.04,20.18,35.77,35.21,8.72,15.03,13.08,32.01,13.08,50.94s-4.36,35.96-13.08,51.08c-8.73,15.13-20.65,26.91-35.77,35.35-15.13,8.45-31.78,12.67-49.97,12.67s-34.57-4.22-49.69-12.67Zm83.93-23.66c10.02-5.85,17.86-14.2,23.52-25.05,5.66-10.86,8.49-23.43,8.49-37.72s-2.83-26.81-8.49-37.58c-5.66-10.76-13.5-19.02-23.52-24.77-10.02-5.75-21.44-8.63-34.24-8.63s-24.22,2.88-34.24,8.63c-10.02,5.75-17.86,14.01-23.52,24.77-5.66,10.77-8.49,23.29-8.49,37.58s2.83,26.86,8.49,37.72c5.66,10.86,13.5,19.21,23.52,25.05,10.02,5.85,21.43,8.77,34.24,8.77s24.22-2.92,34.24-8.77Z"/>
          <path class="cls-2" d="m710.3,246.51l43.43-124.99h33.68l-58.46,153.38h-37.86l-58.18-153.38h33.96l43.43,124.99Z"/>
          <path class="cls-2" d="m942.46,210.04h-117.19c.92,12.25,5.47,22.09,13.64,29.51,8.17,7.42,18.19,11.14,30.06,11.14,17.07,0,29.14-7.14,36.19-21.43h34.24c-4.64,14.11-13.04,25.66-25.19,34.66-12.16,9-27.24,13.5-45.24,13.5-14.66,0-27.79-3.29-39.39-9.88-11.6-6.59-20.7-15.87-27.28-27.84-6.59-11.97-9.88-25.84-9.88-41.62s3.2-29.65,9.6-41.62c6.4-11.97,15.4-21.2,27-27.7,11.59-6.49,24.91-9.74,39.94-9.74s27.37,3.16,38.7,9.46c11.32,6.31,20.13,15.17,26.44,26.58,6.31,11.41,9.47,24.54,9.47,39.39,0,5.75-.38,10.95-1.12,15.59Zm-32.01-25.61c-.19-11.69-4.36-21.06-12.53-28.12-8.17-7.05-18.28-10.58-30.34-10.58-10.95,0-20.32,3.48-28.12,10.44-7.79,6.96-12.43,16.38-13.92,28.25h84.9Z"/>
          <path class="cls-2" d="m1016.64,125.55c7.7-4.36,16.84-6.54,27.42-6.54v32.85h-8.07c-12.43,0-21.85,3.16-28.25,9.46-6.4,6.31-9.6,17.26-9.6,32.85v80.73h-31.73V121.52h31.73v22.27c4.63-7.8,10.81-13.87,18.51-18.23Z"/>
        </g>
        <g>
          <path class="cls-1" d="m1132.86,147.41h-28.39v127.49h-32.01v-127.49h-18.09v-25.89h18.09v-10.86c0-17.63,4.68-30.48,14.06-38.55,9.37-8.07,24.08-12.11,44.12-12.11v26.44c-9.65,0-16.42,1.81-20.32,5.43s-5.85,9.88-5.85,18.79v10.86h28.39v25.89Z"/>
          <path class="cls-1" d="m1184.35,68.91v205.99h-31.73V68.91h31.73Z"/>
          <path class="cls-1" d="m1245.03,267.52c-11.69-6.59-20.88-15.87-27.56-27.84-6.68-11.97-10.02-25.84-10.02-41.62s3.43-29.41,10.3-41.48c6.86-12.06,16.24-21.34,28.11-27.84,11.88-6.49,25.14-9.74,39.81-9.74s27.93,3.25,39.81,9.74c11.87,6.5,21.25,15.78,28.11,27.84,6.86,12.07,10.3,25.89,10.3,41.48s-3.53,29.42-10.58,41.48c-7.05,12.07-16.66,21.39-28.81,27.98-12.16,6.59-25.57,9.88-40.23,9.88s-27.56-3.29-39.25-9.88Zm62.22-23.52c7.14-3.9,12.94-9.74,17.4-17.54,4.45-7.79,6.68-17.26,6.68-28.39s-2.14-20.55-6.4-28.25c-4.27-7.7-9.93-13.5-16.98-17.4-7.05-3.9-14.66-5.84-22.83-5.84s-15.73,1.95-22.69,5.84c-6.96,3.9-12.48,9.7-16.56,17.4-4.08,7.7-6.12,17.12-6.12,28.25,0,16.52,4.22,29.28,12.67,38.28,8.44,9,19.07,13.5,31.87,13.5,8.16,0,15.82-1.95,22.97-5.85Z"/>
          <path class="cls-1" d="m1592.99,121.52l-47.6,153.38h-33.4l-30.9-113.3-30.9,113.3h-33.4l-47.88-153.38h32.29l32.01,123.32,32.57-123.32h33.13l31.18,122.76,31.73-122.76h31.18Z"/>
        </g>
      </g>
      <g>
        <path class="cls-4" d="m178.59,97.42v155.72c0,23.51-5.22,43.36-15.64,59.61-10.01,15.91-22.34,24.16-36.88,24.65h-2.8c-1.86-.09-3.65-.31-5.44-.65.85.09,1.73.12,2.61.15.31.03.6.03.91.03,1.57.06,3.15.12,4.72.12-.22,0-.47,0-.66-.06-14.29-.68-26.34-8.89-36.22-24.59-10.42-16.25-15.64-36.1-15.64-59.61V84.28c0-23.27,5.22-43.15,15.64-59.58,2.39-3.79,4.88-7.14,7.52-10.06.41-.46.85-.92,1.26-1.35,1.23-1.26,2.42-2.4,3.68-3.45.5-.46,1.04-.89,1.57-1.29.57-.46,1.13-.89,1.7-1.29.69-.49,1.38-.95,2.11-1.38.72-.46,1.48-.89,2.23-1.29.76-.43,1.51-.83,2.27-1.14.66-.31,1.38-.62,2.08-.89.98-.37,1.98-.71,2.99-.98.63-.22,1.29-.4,1.95-.55.03,0,.09,0,.13-.03.79-.15,1.57-.31,2.36-.43.76-.15,1.54-.25,2.33-.31.03,0,.06-.03.09-.03h.19c.09-.03.19-.03.28-.03.53-.06,1.1-.09,1.67-.12.03,0,.09-.03.13,0h.06c1.45.03,2.9.18,4.28.43-1.32-.09-2.64-.12-4-.12,3.56.12,6.99.71,10.26,1.75.44.12.91.31,1.35.49,8.91,3.63,16.8,11.11,23.73,22.07,10.67,16.46,16.02,36.35,16.02,59.61,0,4.49.38,8.89,1.16,13.14Z"/>
        <path class="cls-4" d="m390.82,93.32v150.74c0,51.55-41.76,93.34-93.31,93.34H127.23c14.22-.49,26.28-8.74,36.07-24.65,10.19-16.25,15.3-36.1,15.3-59.61V97.42c-.77-4.25-1.14-8.65-1.14-13.14,0-23.27-5.23-43.15-15.66-59.61-6.77-10.96-14.5-18.43-23.2-22.07-.43-.18-.89-.37-1.32-.49-3.2-1.05-6.56-1.63-10.03-1.75,1.32,0,2.62.03,3.91.12-1.35-.25-2.77-.4-4.19-.43h-.06s-.09,0-.12,0c-.55.03-1.11.06-1.63.12-.09,0-.18,0-.28.03h-.18s-.06.03-.09.03c-.77.06-1.54.15-2.28.31-.77.09-1.54.25-2.31.43-.03.03-.09.03-.12.03-.65.15-1.29.34-1.91.55-.98.28-1.97.62-2.92.98-.68.25-1.35.55-2.03.89-.74.31-1.48.71-2.22,1.14-.74.37-1.48.8-2.18,1.29-.71.43-1.38.89-2.06,1.38-.55.4-1.11.83-1.66,1.29-.52.4-1.05.83-1.54,1.29-1.23,1.05-2.4,2.19-3.6,3.45-.4.43-.83.89-1.23,1.35-2.59,2.92-5.02,6.28-7.36,10.06-10.19,16.43-15.3,36.32-15.3,59.58v168.53c0,23.51,5.11,43.36,15.3,59.61,9.66,15.7,21.45,23.91,35.42,24.59.18.06.43.06.65.06-1.54,0-3.08-.06-4.62-.12-.31,0-.58,0-.89-.03-.86-.03-1.72-.09-2.55-.15h-.06c-1.94-.09-3.85-.28-5.72-.49-.98-.09-1.94-.22-2.89-.34-7.97-.98-15.54-2.68-22.71-5.08-1.42-.46-2.8-.95-4.19-1.48-.86-.31-1.69-.65-2.52-1.02-.89-.34-1.79-.71-2.65-1.11-1.38-.58-2.74-1.23-4.06-1.88-.22-.09-.43-.18-.62-.31-1.05-.52-2.06-1.05-3.08-1.6-.71-.37-1.38-.74-2.06-1.14-.31-.15-.62-.34-.89-.52-.58-.31-1.14-.65-1.69-.98-.46-.28-.95-.58-1.38-.86-3.66-2.28-7.17-4.8-10.56-7.54-8.06-6.34-14.56-13.26-19.45-20.74C10.93,260.93,0,217.07,0,168.45S11.48,73.69,36.53,42.82c4.62-6.43,10.49-12.53,17.54-18.13,9.45-7.66,19.85-13.57,31.3-17.63.95-.34,1.94-.68,2.92-.98.09-.03.18-.06.28-.09.15-.03.28-.09.43-.12.55-.22,1.11-.4,1.69-.52.95-.34,1.91-.62,2.89-.86,1.2-.34,2.43-.68,3.66-.95,1.08-.25,2.15-.49,3.23-.71.31-.09.58-.15.89-.18.95-.22,1.94-.4,2.92-.55.55-.12,1.11-.22,1.69-.28.92-.18,1.85-.34,2.77-.43,4.49-.65,9.11-1.08,13.85-1.26,1.17-.03,2.31-.06,3.48-.09h171.42c28.74,2.99,67.86,20.77,83.22,51.12,0,0,.03.03.03.06,2.18,4.22,4,8.68,5.48,13.23t.03.06c2.95,9.08,4.55,18.77,4.55,28.84Z"/>
        <path class="cls-3" d="m126.58,337c-3.17-.12-6.25-.34-9.29-.65-36.44-3.6-63.67-19.94-82.66-44.69,4.89,7.48,11.39,14.4,19.45,20.74,3.39,2.74,6.89,5.26,10.56,7.54.43.28.92.58,1.38.86.55.34,1.11.68,1.69.98.28.18.58.37.89.52.68.4,1.35.77,2.06,1.14,1.02.55,2.03,1.08,3.08,1.6.18.12.4.22.62.31,1.32.65,2.68,1.29,4.06,1.88.86.4,1.75.77,2.65,1.11.83.37,1.66.71,2.52,1.02,1.38.52,2.77,1.02,4.19,1.48,7.17,2.4,14.74,4.09,22.71,5.08.95.12,1.91.25,2.89.34,1.88.22,3.79.4,5.72.49h.06c.83.06,1.69.12,2.55.15.31.03.58.03.89.03,1.54.06,3.08.12,4.62.12-.22,0-.46,0-.65-.06ZM108.76,1.37c-.92.09-1.85.25-2.77.43-.58.06-1.14.15-1.69.28-.98.15-1.97.34-2.92.55-.31.03-.58.09-.89.18-1.08.22-2.15.46-3.23.71-1.23.28-2.46.62-3.66.95-.98.25-1.94.52-2.89.86-.58.12-1.14.31-1.69.52-.15.03-.28.09-.43.12-.09.03-.18.06-.28.09-.98.31-1.97.65-2.92.98-11.45,4.06-21.85,9.97-31.3,17.63-7.05,5.6-12.93,11.69-17.54,18.13C55.77,19.03,82.97,3.55,119.07.38c.46-.06.95-.09,1.45-.12h.18c.65-.06,1.26-.12,1.91-.15-4.74.18-9.36.62-13.85,1.26Z"/>
        <path class="cls-2" d="m230.97,78.06s-.03-.03,0-.06c-1.29-15.14-7.29-28.74-17.88-40.81-1.66-1.94-3.48-3.88-5.42-5.75-.4-.43-.83-.83-1.26-1.17-.34-.31-.65-.62-.95-.92-.34-.31-.68-.58-.98-.86v-.03c-.37-.34-.77-.71-1.2-1.05-.83-.74-1.78-1.51-2.68-2.22-.06-.06-.15-.12-.22-.15-.37-.31-.74-.58-1.08-.86-.52-.4-1.02-.8-1.54-1.17-1.05-.8-2.09-1.6-3.17-2.34-.92-.65-1.85-1.29-2.77-1.91-1.2-.8-2.4-1.57-3.63-2.28-1.2-.74-2.4-1.45-3.63-2.12-1.02-.58-2.06-1.14-3.11-1.66-14.8-7.51-31.58-11.6-50.23-12.22-.03,0-.06-.03-.09,0-1.29-.09-2.59-.12-3.91-.12,3.48.12,6.83.71,10.03,1.75.43.12.89.31,1.32.49,9.42,3.42,17.67,10.93,24.71,22.44,10.19,16.43,15.3,36.32,15.3,59.58v168.53c0,23.51-5.11,43.36-15.3,59.61-9.79,15.91-21.85,24.16-36.07,24.65,28.81-.25,53.18-8.46,73.15-24.65,20.62-16.25,30.9-36.1,30.9-59.61V84.61c0-2.22-.09-4.4-.31-6.56Z"/>
        <path class="cls-1" d="m282.46,168.54h-.95c-18.56-.12-35.3-3.54-50.23-10.28-.4-.18-.77-.34-1.14-.52-7.76-3.6-15.02-8.16-21.79-13.57-16.65-13.26-26.56-28.87-29.76-46.75-.77-4.25-1.14-8.65-1.14-13.14,0-23.27-5.23-43.15-15.66-59.61-6.77-10.96-14.5-18.43-23.2-22.07-.43-.18-.89-.37-1.32-.49-1.97-.77-3.97-1.29-6.03-1.63-.03,0-.06-.03-.09,0-1.35-.25-2.77-.4-4.19-.43,21.17.31,38.9,4.55,54.5,12.65,1.05.52,2.09,1.08,3.11,1.66,1.23.68,2.43,1.38,3.63,2.12,1.23.71,2.43,1.48,3.63,2.28.92.62,1.85,1.26,2.77,1.91,1.08.74,2.12,1.54,3.17,2.34.52.37,1.02.77,1.54,1.17.34.28.71.55,1.08.86.06.03.15.09.22.15.89.71,1.85,1.48,2.68,2.22.43.34.83.71,1.2,1.05.31.28.65.58.98.89.31.31.62.62.95.92.43.34.86.74,1.26,1.17,1.94,1.88,3.75,3.82,5.42,5.75,2.8,3.26,5.23,6.65,7.29,10.16.03.03.06.09.09.15,6.59,11.17,9.66,23.45,9.66,36.78,0,6.34.37,12.46,1.14,18.31,2,15.73,6.71,29.61,14.1,41.58,10.19,16.28,22.56,24.37,37.08,24.37Z"/>
        <path class="cls-2" d="m282.18,0c-14.2.51-26.24,8.71-36.11,24.68-10.14,16.44-15.24,36.34-15.24,59.59,0-21.42-8.83-39.97-26.53-55.63,1.53-1.32,3.09-2.68,4.73-3.97C229,8.44,253.37.27,282.18,0Z"/>
        <path class="cls-2" d="m336.29,42.14c0-11.42-5.07-21.19-15.24-29.32-10.17-8.34-22.51-12.61-37.04-12.81,29.07.2,53.78,8.54,74.13,25.02,20.57,16.44,30.9,36.2,30.9,59.25h-105.47c14.27,0,26.65-4.07,37.08-12.2,10.43-8.34,15.65-18.31,15.65-29.93Z"/>
        <path class="cls-2" d="m323.88,152.69c0,4.81-2.05,8.88-6.19,12.17-4.1,3.29-9.06,4.95-14.83,4.95s-11.14-1.66-15.24-4.95c-4.1-3.29-6.19-7.36-6.19-12.17s2.09-8.58,6.19-11.86c4.1-3.29,9.21-4.95,15.24-4.95s10.73,1.66,14.83,4.95c4.14,3.29,6.19,7.25,6.19,11.86Z"/>
        <path class="cls-3" d="m125.13.17c-.09,0-.18,0-.28.03h-.18c-14.13.65-26.04,8.86-35.76,24.65-10.25,16.46-15.36,36.35-15.36,59.64v168.65c0,23.51,5.11,43.39,15.36,59.64,8,12.96,17.45,20.84,28.38,23.57.58.15,1.2.28,1.82.4-1.94-.09-3.85-.28-5.72-.49-.98-.09-1.94-.22-2.89-.34-7.97-.98-15.54-2.68-22.71-5.08-1.42-.46-2.8-.95-4.19-1.48-.86-.31-1.69-.65-2.52-1.02-.89-.34-1.79-.71-2.65-1.11-1.38-.58-2.74-1.23-4.06-1.88-.22-.09-.43-.18-.62-.31-1.05-.52-2.06-1.05-3.08-1.6-.71-.37-1.38-.74-2.06-1.14-.31-.15-.62-.34-.89-.52-.58-.31-1.14-.65-1.69-.98-.46-.28-.95-.58-1.38-.86-3.66-2.28-7.17-4.8-10.56-7.54-8.06-6.34-14.56-13.26-19.45-20.74C10.93,260.93,0,217.07,0,168.45S11.48,73.69,36.53,42.82c4.62-6.43,10.49-12.53,17.54-18.13,9.45-7.66,19.85-13.57,31.3-17.63.95-.34,1.94-.68,2.92-.98.09-.03.18-.06.28-.09.15-.03.28-.09.43-.12,9.23-2.83,19.27-4.71,30.07-5.48.46-.06.95-.09,1.45-.12h.18c1.11-.03,2.18-.06,3.29-.09h1.14Z"/>
      </g>
    </g>
  </g>
</svg>